<svg xmlns="http://www.w3.org/2000/svg" width="410" height="404" viewBox="0 0 410 404" fill="none">
  <path d="M399.641 59.5241L220.825 379.227C215.018 389.583 200.266 389.647 194.369 379.342L9.95356 59.5235C3.55099 48.3582 13.1142 34.7814 25.842 37.1311L205.169 70.2055C207.845 70.6991 210.589 70.6991 213.265 70.2055L383.751 38.754C396.48 36.4044 406.043 49.9813 399.641 59.5241Z" fill="#41D1FF"/>
  <path d="M292.966 15.8098L160.469 41.7521C158.291 42.1781 156.708 44.0406 156.634 46.2589L148.483 289.206C148.359 292.894 151.838 295.737 155.411 294.717L192.369 284.17C196.257 283.061 199.888 286.509 199.071 290.47L187.982 344.117C187.133 348.228 190.98 351.721 194.985 350.534L217.803 343.775C221.813 342.588 225.659 346.09 224.802 350.205L207.363 433.923C206.271 439.172 213.22 442.438 216.66 438.377L218.959 435.667C221.608 432.546 223.624 428.935 224.901 425.038L290.793 224.233C291.989 220.587 288.574 217.112 284.908 218.209L245.892 229.877C242.006 231.039 238.35 227.601 239.19 223.639L298.862 35.0874C299.964 29.9287 298.186 24.7463 294.128 21.2642C293.317 20.5678 292.51 19.8794 291.711 19.199C289.295 17.1461 290.005 14.9945 292.966 15.8098Z" fill="#BD34FE"/>
  <path d="M292.966 15.8098L160.469 41.7521C158.291 42.1781 156.708 44.0406 156.634 46.2589L148.483 289.206C148.359 292.894 151.838 295.737 155.411 294.717L192.369 284.17C196.257 283.061 199.888 286.509 199.071 290.47L187.982 344.117C187.133 348.228 190.98 351.721 194.985 350.534L217.803 343.775C221.813 342.588 225.659 346.09 224.802 350.205L207.363 433.923C206.271 439.172 213.22 442.438 216.66 438.377L218.959 435.667C221.608 432.546 223.624 428.935 224.901 425.038L290.793 224.233C291.989 220.587 288.574 217.112 284.908 218.209L245.892 229.877C242.006 231.039 238.35 227.601 239.19 223.639L298.862 35.0874C299.964 29.9287 298.186 24.7463 294.128 21.2642C293.317 20.5678 292.51 19.8794 291.711 19.199C289.295 17.1461 290.005 14.9945 292.966 15.8098Z" fill="url(#paint0_linear)"/>
  <defs>
    <linearGradient id="paint0_linear" x1="171.123" y1="8.99999" x2="240.117" y2="386.573" gradientUnits="userSpaceOnUse">
      <stop stop-color="#FFEA83"/>
      <stop offset="0.0833333" stop-color="#FFDD35"/>
      <stop offset="1" stop-color="#FFA800"/>
    </linearGradient>
  </defs>
</svg>

